<svg width="14" height="10" viewBox="0 0 14 10" xmlns="http://www.w3.org/2000/svg">
<path fill-rule="evenodd" clip-rule="evenodd" d="M5.24049 6.39662L10.9302 0.706956C11.3207 0.316432 11.9538 0.316431 12.3444 0.706956L12.7191 1.08172C13.1097 1.47225 13.1097 2.10541 12.7191 2.49594L6.37532 8.83975C6.35913 8.85853 6.34213 8.87685 6.32431 8.89466L5.95305 9.26593C5.73454 9.48444 5.44006 9.58068 5.15463 9.55467C4.92868 9.53489 4.70818 9.43853 4.53525 9.26561L4.16048 8.89084C4.1442 8.87456 4.1286 8.85786 4.11368 8.84077L1.2011 5.92819C0.810572 5.53766 0.810572 4.9045 1.2011 4.51397L1.57236 4.14271C1.96288 3.75219 2.59605 3.75219 2.98657 4.14271L5.24049 6.39662Z" fill="currentColor"/>
</svg>
