<svg width="28" height="21" viewBox="0 0 28 21" xmlns="http://www.w3.org/2000/svg">
<path d="M21.4443 11.1685L17.5525 7.27661M17.5525 7.27661L20.9897 3.83582M17.5525 7.27661L26.3956 7.27661M19.0365 17.1923C19.0365 17.1923 17.8445 18.363 17.5525 18.7062C17.0766 19.214 16.516 19.4538 15.781 19.4538C15.7104 19.4538 15.635 19.4538 15.5643 19.4491C14.1651 19.3597 12.8648 18.8143 11.8896 18.3489C9.22301 17.0607 6.88153 15.2317 4.9358 12.9138C3.32927 10.9815 2.25511 9.19488 1.54372 7.27663C1.10557 6.10593 0.945391 5.19382 1.01606 4.33343C1.06317 3.78334 1.27518 3.32729 1.66621 2.93706L3.27273 1.33381C3.50358 1.11754 3.74857 1 3.98884 1C4.28565 1 4.52592 1.17866 4.67668 1.32911C4.68139 1.33381 4.6861 1.33852 4.69081 1.34322C4.9782 1.61121 5.25145 1.8886 5.53883 2.1848C5.68488 2.33525 5.83564 2.4857 5.9864 2.64086L7.27256 3.92439C7.77195 4.42276 7.77195 4.88352 7.27256 5.38189C7.13594 5.51823 7.00402 5.65458 6.8674 5.78622C6.47165 6.19056 6.78253 5.88032 6.37266 6.24704C6.36323 6.25644 6.35381 6.26115 6.3491 6.27055C5.94394 6.67489 6.01932 7.06982 6.10412 7.33781C6.10883 7.35192 6.11354 7.36602 6.11825 7.38013C6.45275 8.1888 6.92387 8.95046 7.63998 9.85787L7.64469 9.86257C8.94499 11.4611 10.316 12.707 11.8283 13.6615C12.0214 13.7837 12.2193 13.8824 12.4077 13.9765C12.5773 14.0611 12.7375 14.141 12.8741 14.2256C12.893 14.2351 12.9118 14.2492 12.9307 14.2586C13.0909 14.3385 13.2416 14.3761 13.3971 14.3761C13.7881 14.3761 14.0331 14.1316 14.1132 14.0517L15.0367 13.1301C15.1968 12.9703 15.4512 12.7775 15.7481 12.7775C16.0401 12.7775 16.2804 12.9609 16.4265 13.1207C16.4312 13.1254 16.4312 13.1254 16.4359 13.1301L19.0318 15.7207C19.517 16.2003 19.0365 17.1923 19.0365 17.1923Z" stroke="currentColor" stroke-width="2" stroke-linecap="round" stroke-linejoin="round" fill="none"/>
</svg>
