<svg width="18" height="16" viewBox="0 0 18 16" xmlns="http://www.w3.org/2000/svg">
<path d="M1.29347 7.25021C1.29347 7.25021 8.82101 4.00768 11.4317 2.86591C12.4325 2.40923 15.8264 0.947758 15.8264 0.947758C15.8264 0.947758 17.3928 0.308418 17.2623 1.86116C17.2187 2.50057 16.8707 4.73835 16.5226 7.15887C16.0004 10.5841 15.4348 14.329 15.4348 14.329C15.4348 14.329 15.3477 15.3795 14.6081 15.5621C13.8684 15.7448 12.65 14.9228 12.4325 14.7401C12.2584 14.6031 9.16908 12.5479 8.03778 11.5432C7.73319 11.2692 7.38511 10.7212 8.08126 10.0818C9.64771 8.57465 11.5187 6.7022 12.65 5.51479C13.1722 4.96672 13.6943 3.68798 11.5187 5.24072C8.42939 7.47857 5.38357 9.57939 5.38357 9.57939C5.38357 9.57939 4.68736 10.0361 3.38203 9.62502C2.07663 9.21405 0.553721 8.66598 0.553721 8.66598C0.553721 8.66598 -0.4905 7.98094 1.29347 7.25021Z" fill="currentColor"/>
</svg>
