<svg width="21" height="19" viewBox="0 0 21 19" xmlns="http://www.w3.org/2000/svg">
<path d="M19.0333 0.22916C18.7436 0.241595 18.4777 0.323809 18.2442 0.414639C18.0284 0.498485 17.2535 0.819822 16.0197 1.33044C14.7859 1.84106 13.151 2.51808 11.4083 3.24126C7.92296 4.68763 4.00633 6.31461 1.99945 7.14792C1.93054 7.17625 1.65064 7.26079 1.34152 7.49376C1.03167 7.72726 0.6875 8.23403 0.6875 8.78825C0.6875 9.23533 0.913693 9.69066 1.18683 9.95135C1.45996 10.212 1.73677 10.3339 1.96812 10.4247C2.64495 10.6907 4.73645 11.5148 5.64551 11.8738C5.96397 12.8154 6.71194 15.0336 6.88697 15.5795H6.88501C7.02738 16.0239 7.16616 16.3134 7.35888 16.5552C7.45524 16.6761 7.57026 16.7856 7.71134 16.872C7.76547 16.9052 7.82541 16.931 7.88562 16.9551C7.89401 16.9586 7.90265 16.9595 7.91107 16.9629L7.88757 16.9571C7.90503 16.964 7.9207 16.9742 7.93849 16.9802C7.96747 16.9901 7.98757 16.9898 8.0266 16.9976C8.16396 17.0393 8.30107 17.0672 8.42802 17.0672C8.97303 17.0672 9.30722 16.7754 9.30722 16.7754L9.32876 16.76L11.6824 14.7951L14.5648 17.4246C14.6164 17.4965 15.0285 18.0487 15.9845 18.0487C16.5541 18.0487 17.0064 17.7724 17.2945 17.4806C17.5826 17.1889 17.7621 16.8903 17.8428 16.4856V16.4818V16.4798C17.8988 16.1926 20.6664 2.48582 20.6664 2.48582L20.6605 2.50901C20.7464 2.13078 20.7717 1.76501 20.6703 1.39227C20.5689 1.01952 20.2951 0.655762 19.9654 0.464873C19.6357 0.273984 19.323 0.216725 19.0333 0.22916ZM18.6378 2.39502C18.529 2.93355 16.0661 15.1423 15.9062 15.9524L13.0434 13.3421C12.3054 12.669 11.1548 12.6453 10.3881 13.2842L8.92735 14.5033L9.70669 11.497C9.70669 11.497 15.083 6.12738 15.4068 5.81479C15.6675 5.56451 15.7221 5.47678 15.7221 5.38973C15.7221 5.27399 15.6617 5.19073 15.5224 5.19073C15.397 5.19073 15.2268 5.30922 15.1366 5.36461C13.9851 6.07293 9.05515 8.84513 6.66765 10.1851C6.57797 10.1322 6.48976 10.0772 6.39156 10.0383C5.60817 9.72894 4.10246 9.13332 3.22133 8.78631C5.30092 7.92273 8.86569 6.44289 12.1857 5.06514C13.9281 4.34208 15.5625 3.66445 16.7951 3.15432C17.8357 2.7237 18.3784 2.50074 18.6378 2.39502ZM15.8748 16.0954H15.8768L15.8748 16.1031C15.8765 16.0946 15.8737 16.1014 15.8748 16.0954Z" fill="currentColor"/>
</svg>
