<svg width="24" height="24" viewBox="0 0 24 24" xmlns="http://www.w3.org/2000/svg">
<path d="M11.1904 0.000962413C9.32032 0.0131162 5.52814 0.199716 3.07494 2.40891C3.06303 2.41946 3.05142 2.43035 3.04013 2.44156C1.43679 4.06136 0.726562 6.38331 0.726562 9.47707V11.148C0.726562 14.2418 1.44135 16.5686 3.07603 18.2184C3.0873 18.23 3.09891 18.2412 3.11084 18.2521C3.81308 18.8835 4.72167 19.3483 5.73876 19.7195V21.7182C5.73876 22.4086 6.16867 23.0327 6.81233 23.2792C7.00647 23.3536 7.21024 23.3902 7.40949 23.3902C7.87576 23.3902 8.33068 23.1938 8.65275 22.8351C8.66303 22.824 9.93391 21.4484 10.7031 20.5991C11.1506 20.613 11.6094 20.6242 11.8637 20.6242C13.2972 20.6242 17.8504 20.742 20.6546 18.2173C20.6665 18.2064 20.6781 18.1951 20.6894 18.1836C22.2928 16.5638 23.003 14.2418 23.003 11.148L23.0019 9.47707C23.0019 6.38277 22.288 4.05617 20.6535 2.40782C20.6422 2.3966 20.6306 2.38571 20.6187 2.37516C17.8447 -0.12081 13.2983 0.000962413 11.8648 0.000962413C11.6856 0.000962413 11.4575 -0.000773856 11.1904 0.000962413ZM11.8648 1.67302C13.2949 1.67302 17.4535 1.7983 19.4842 3.60852C20.733 4.88032 21.3312 6.64523 21.3312 9.47707L21.3323 11.1491C21.3321 13.9793 20.73 15.7489 19.5201 16.9839C17.4486 18.8322 13.2939 18.9521 11.8637 18.9521C11.5212 18.9521 11.007 18.9522 10.3855 18.9205C10.2609 18.9141 10.1364 18.9357 10.0212 18.9837C9.90598 19.0318 9.803 19.105 9.7198 19.1981C9.06127 19.9355 7.41928 21.7062 7.41928 21.7062C7.41598 21.7098 7.41272 21.7134 7.40949 21.7171V19.1578C7.40952 18.9779 7.35153 18.8027 7.24414 18.6584C7.13676 18.514 6.9857 18.4082 6.81342 18.3566C5.71139 18.0262 4.85982 17.5663 4.24641 17.0199C2.996 15.7461 2.39729 13.9801 2.39729 11.148V9.47707C2.39729 6.64699 2.99896 4.87744 4.20834 3.64227C6.27899 1.79352 10.4344 1.67302 11.8648 1.67302ZM11.8648 3.90353C11.5574 3.90353 11.3079 4.15322 11.3079 4.46088C11.3079 4.76854 11.5574 5.01824 11.8648 5.01824C14.6282 5.01824 16.877 7.26883 16.877 10.0344V10.5918C16.877 10.8994 17.1265 11.1491 17.4339 11.1491C17.7413 11.1491 17.9908 10.8994 17.9908 10.5918V10.0344C17.9908 6.65407 15.2424 3.90353 11.8648 3.90353ZM7.45952 4.46088C7.10366 4.46033 6.63701 4.63661 6.32069 4.87237C5.84508 5.2274 5.34758 5.71062 5.21448 6.31256C5.19666 6.39449 5.18628 6.47718 5.18293 6.55967C5.15732 7.18669 5.40241 7.8234 5.66806 8.36236C6.29347 9.63257 7.12135 10.8621 8.02187 11.9601C8.3098 12.3113 8.62393 12.6375 8.94861 12.9529C9.26382 13.2773 9.58975 13.5917 9.9406 13.8804C11.0377 14.7816 12.2663 15.6102 13.5355 16.2361C14.069 16.4991 14.6968 16.7405 15.3172 16.7227C15.4057 16.7199 15.4951 16.7095 15.5837 16.69C16.1851 16.5574 16.668 16.0589 17.0227 15.5829C17.2583 15.2664 17.4344 14.7999 17.4339 14.4432C17.4333 14.2325 17.3376 14.0309 17.1282 13.8543C16.5095 13.3326 16.2237 13.1756 15.3694 12.6623C15.0135 12.4488 14.4716 12.2638 14.187 12.2638C13.9927 12.2638 13.7597 12.4129 13.6171 12.5556C13.2518 12.9212 13.1317 13.3786 12.4913 13.3786C11.8648 13.3786 10.7704 12.7404 9.9852 11.9155C9.16097 11.1296 8.52331 10.0344 8.52331 9.4074C8.52331 8.76645 8.97268 8.63819 9.33801 8.27201C9.48058 8.12989 9.63713 7.8972 9.63713 7.70268C9.63713 7.41787 9.45232 6.88316 9.23903 6.52701C8.72611 5.67147 8.5698 5.38544 8.04798 4.76678C7.87144 4.55721 7.67004 4.46144 7.45952 4.46088ZM12.103 5.58539C11.8006 5.56867 11.5339 5.8046 11.5178 6.11226C11.5016 6.41937 11.7368 6.68176 12.0442 6.69792C13.8175 6.79156 15.2062 8.25758 15.2062 10.0344C15.2062 10.3421 15.4557 10.5918 15.7631 10.5918C16.0706 10.5918 16.3201 10.3421 16.3201 10.0344C16.3201 7.66456 14.4682 5.71024 12.103 5.58539ZM12.3401 7.33256C12.1251 7.36462 11.9398 7.52083 11.8822 7.74405C11.8053 8.04223 11.9845 8.34585 12.2825 8.42332C12.8655 8.57381 13.322 9.03172 13.4746 9.6175C13.5398 9.86831 13.7657 10.0344 14.013 10.0344C14.0592 10.0344 14.1071 10.0282 14.1544 10.0159C14.4518 9.93789 14.6299 9.63374 14.5525 9.33556C14.298 8.35907 13.5355 7.59702 12.562 7.34454C12.4872 7.32545 12.4118 7.32188 12.3401 7.33256Z" fill="currentColor"/>
</svg>
