<svg width="23" height="23" viewBox="0 0 23 23" xmlns="http://www.w3.org/2000/svg">
<path fill-rule="evenodd" clip-rule="evenodd" d="M19.0314 3.23752C16.9357 1.15136 14.1512 0 11.1853 0C5.07238 0 0.0942692 4.95192 0.0942692 11.0372C0.0906427 12.9825 0.60187 14.881 1.57356 16.5557L0 22.2764L5.88092 20.7389C7.49799 21.6195 9.32535 22.0815 11.1817 22.0851H11.1853C17.2983 22.0851 22.2728 17.1332 22.2764 11.0444C22.2764 8.0956 21.1234 5.32368 19.0314 3.23752ZM11.1853 20.2191H11.1817C9.52839 20.2191 7.90407 19.7752 6.49004 18.9415L6.15285 18.7429L2.66128 19.6525L3.59309 16.267L3.37555 15.9205C2.45099 14.4587 1.96514 12.7696 1.96514 11.0372C1.96514 5.98056 6.10209 1.86599 11.189 1.86599C13.6508 1.86599 15.964 2.82245 17.7044 4.5549C19.4447 6.29096 20.4019 8.59367 20.4019 11.0444C20.4019 16.1046 16.265 20.2191 11.1853 20.2191ZM16.2396 13.3471C15.964 13.2099 14.6008 12.5422 14.347 12.452C14.0932 12.3581 13.9083 12.3148 13.7233 12.5891C13.5384 12.8671 13.0091 13.4878 12.8459 13.6719C12.6864 13.8524 12.5232 13.8776 12.2477 13.7405C11.9685 13.6033 11.0766 13.311 10.0179 12.369C9.19483 11.6399 8.63647 10.734 8.47693 10.4597C8.31378 10.1818 8.4588 10.0338 8.59658 9.89662C8.72348 9.77391 8.87576 9.5754 9.01354 9.41298C9.15132 9.25417 9.19845 9.13867 9.29272 8.9546C9.38336 8.77053 9.33623 8.60811 9.26734 8.47096C9.19845 8.33381 8.64372 6.97311 8.41167 6.42089C8.18688 5.88311 7.95846 5.95891 7.78805 5.94808C7.62851 5.94086 7.4436 5.94086 7.25869 5.94086C7.07378 5.94086 6.77284 6.00944 6.51904 6.28735C6.26524 6.56166 5.55098 7.22937 5.55098 8.58646C5.55098 9.94354 6.54442 11.2573 6.6822 11.4414C6.81998 11.6219 8.63647 14.4082 11.4174 15.6029C12.0773 15.888 12.5921 16.0576 12.9946 16.184C13.6581 16.3933 14.2636 16.3644 14.7422 16.2959C15.2752 16.2165 16.381 15.6281 16.613 14.9821C16.8415 14.3396 16.8415 13.7874 16.7726 13.6719C16.7037 13.5564 16.5188 13.4878 16.2396 13.3471Z" fill="currentColor"/>
</svg>
