<svg width="68" height="76" viewBox="0 0 68 76" fill="none" xmlns="http://www.w3.org/2000/svg">
<circle cx="34" cy="34" r="34" fill="#2B3E82"/>
<path d="M35.5 76C36.4966 70.4782 38.4477 67.8583 44 64H27C33.1257 68.7607 34.7084 71.337 35.5 76Z" fill="#2B3E82"/>
<path fill-rule="evenodd" clip-rule="evenodd" d="M12.6836 34.2249C12.6836 22.5335 22.2275 12.9995 33.9262 12.9995C38.5057 12.9995 42.7546 14.4593 46.2321 16.9406L45.5621 18.3884C42.2985 15.9872 38.2734 14.5663 33.924 14.5663C23.0898 14.5663 14.2505 23.3962 14.2505 34.225H12.6836V34.2249Z" fill="white"/>
<path fill-rule="evenodd" clip-rule="evenodd" d="M42.4313 49.1662L43.6699 53.0673L42.2326 53.7462L40.0335 50.289L38.6796 50.7468L38.9854 54.8152L37.5416 55.1412L36.1174 51.2671L34.6877 51.3924L34.14 55.45L32.5298 55.3831L32.0523 51.306L30.6506 51.0771L29.1488 54.8962L27.5634 54.4784L28.1145 50.371L26.821 49.8289L24.4534 53.201L23.0291 52.4225L24.4901 48.5301L23.3814 47.7279L20.2821 50.4704L19.0232 49.3291L21.4232 45.9248L20.5361 44.8902L16.8641 46.8413L15.9491 45.5275L19.0372 42.6683L18.43 41.46L14.3379 42.4988L13.7716 40.9482L17.491 38.9616L17.1657 37.6672L12.9428 37.7491C12.8703 37.1889 12.7968 36.6261 12.7224 36.0659L16.8007 35.135L23.6062 35.1825C23.5553 34.7583 23.631 34.5185 23.631 34.078C23.631 28.4645 28.3046 23.8843 33.9239 23.8843C36.8662 23.8843 39.5258 25.14 41.3898 27.1408L40.5728 28.7669C39.0146 26.833 36.6167 25.5935 33.9239 25.5935C29.2102 25.5935 25.4303 29.4049 25.4303 34.078C25.4303 38.7542 29.2458 42.5679 33.9239 42.5679C35.6409 42.5679 37.212 42.0323 38.6213 41.2288L42.4313 49.1663V49.1662Z" fill="white"/>
<path fill-rule="evenodd" clip-rule="evenodd" d="M19.4017 26.6162C21.5326 26.6162 23.2682 28.3547 23.2682 30.4818C23.2682 32.6099 21.5327 34.344 19.4017 34.344C17.274 34.344 15.5352 32.61 15.5352 30.4818C15.5352 28.3547 17.274 26.6162 19.4017 26.6162Z" fill="white"/>
<path fill-rule="evenodd" clip-rule="evenodd" d="M24.9742 18.2944C27.142 18.2944 28.9055 20.0607 28.9055 22.2235C28.9055 24.3896 27.142 26.1549 24.9742 26.1549C22.8067 26.1549 21.043 24.3896 21.043 22.2235C21.043 20.0607 22.8067 18.2944 24.9742 18.2944Z" fill="white"/>
<path fill-rule="evenodd" clip-rule="evenodd" d="M43.3697 18.5957C44.0658 18.5957 44.6709 18.8991 45.2318 19.2037L41.8431 26.1475C40.4317 25.547 39.4375 24.1479 39.4375 22.5282C39.4375 20.3643 41.1405 18.5958 43.3697 18.5958V18.5957Z" fill="white"/>
<path fill-rule="evenodd" clip-rule="evenodd" d="M55.2461 34.2249C55.2461 22.5335 45.7021 12.9995 34.0035 12.9995C29.424 12.9995 25.1751 14.4593 21.6976 16.9406L22.3676 18.3884C25.6312 15.9872 29.6563 14.5663 34.0056 14.5663C44.8399 14.5663 53.6791 23.3962 53.6791 34.225H55.2461V34.2249Z" fill="white"/>
<path fill-rule="evenodd" clip-rule="evenodd" d="M25.4984 49.1662L24.2598 53.0673L25.6971 53.7462L27.8961 50.289L29.2501 50.7468L28.9443 54.8152L30.3881 55.1412L31.8122 51.2671L33.242 51.3924L33.7897 55.45L35.3999 55.3831L35.8774 51.306L37.2791 51.0771L38.7809 54.8962L40.3663 54.4784L39.8151 50.371L41.1086 49.8289L43.4763 53.201L44.9006 52.4225L43.4396 48.5301L44.5483 47.7279L47.6476 50.4704L48.9064 49.3291L46.5065 45.9248L47.3936 44.8902L51.0656 46.8413L51.9806 45.5275L48.8924 42.6683L49.4997 41.46L53.5918 42.4988L54.1581 40.9482L50.4387 38.9616L50.764 37.6672L54.9869 37.7491C55.0593 37.1889 55.1329 36.6261 55.2073 36.0659L51.129 35.135L44.3235 35.1825C44.3744 34.7583 44.2986 34.5185 44.2986 34.078C44.2986 28.4645 39.6251 23.8843 34.0058 23.8843C31.0635 23.8843 28.4039 25.14 26.5399 27.1408L27.3569 28.7669C28.9151 26.833 31.313 25.5935 34.0058 25.5935C38.7195 25.5935 42.4994 29.4049 42.4994 34.078C42.4994 38.7542 38.6839 42.5679 34.0058 42.5679C32.2888 42.5679 30.7177 42.0323 29.3084 41.2288L25.4984 49.1663V49.1662Z" fill="white"/>
<path fill-rule="evenodd" clip-rule="evenodd" d="M48.528 26.6162C46.3971 26.6162 44.6615 28.3547 44.6615 30.4818C44.6615 32.6099 46.397 34.344 48.528 34.344C50.6557 34.344 52.3945 32.61 52.3945 30.4818C52.3945 28.3547 50.6557 26.6162 48.528 26.6162Z" fill="white"/>
<path fill-rule="evenodd" clip-rule="evenodd" d="M42.9555 18.2944C40.7877 18.2944 39.0242 20.0607 39.0242 22.2235C39.0242 24.3896 40.7877 26.1549 42.9555 26.1549C45.1229 26.1549 46.8867 24.3896 46.8867 22.2235C46.8867 20.0607 45.1229 18.2944 42.9555 18.2944Z" fill="white"/>
<path fill-rule="evenodd" clip-rule="evenodd" d="M33.344 15.4341C31.2099 15.4341 29.4701 17.1735 29.4701 19.306C29.4701 21.4351 31.2099 23.1746 33.344 23.1746C35.4738 23.1746 37.2148 21.4351 37.2148 19.306C37.2148 17.1735 35.4739 15.4341 33.344 15.4341Z" fill="white"/>
<path fill-rule="evenodd" clip-rule="evenodd" d="M24.56 18.5957C23.8639 18.5957 23.2587 18.8991 22.6979 19.2037L26.0866 26.1475C27.498 25.547 28.4922 24.1479 28.4922 22.5282C28.4922 20.3643 26.7892 18.5958 24.56 18.5958V18.5957Z" fill="white"/>
</svg>
