<svg width="251" height="80" viewBox="0 0 251 80" fill="none" xmlns="http://www.w3.org/2000/svg">
<path fill-rule="evenodd" clip-rule="evenodd" d="M0.882812 40.0001C0.882812 17.9672 18.8688 0 40.9153 0C49.5455 0 57.5527 2.75103 64.1062 7.42711L62.8436 10.1556C56.6933 5.63048 49.1078 2.95259 40.9113 2.95259C20.4936 2.95259 3.83578 19.593 3.83578 40.0002H0.882813L0.882812 40.0001Z" fill="#231F20"/>
<path fill-rule="evenodd" clip-rule="evenodd" d="M56.9426 68.1579L59.2768 75.5096L56.5682 76.7891L52.424 70.2739L49.8724 71.1366L50.4487 78.8037L47.7278 79.4181L45.0439 72.1173L42.3495 72.3533L41.3174 80L38.2828 79.874L37.383 72.1905L34.7415 71.7592L31.9112 78.9563L28.9235 78.169L29.9621 70.4284L27.5245 69.4069L23.0625 75.7617L20.3785 74.2946L23.1317 66.9592L21.0423 65.4474L15.2016 70.6157L12.8292 68.4649L17.352 62.0494L15.6803 60.0996L8.76029 63.7767L7.03582 61.3007L12.8556 55.9123L11.7113 53.6353L3.99951 55.593L2.93235 52.6709L9.94159 48.927L9.32868 46.4875L1.3704 46.642C1.23387 45.5863 1.09521 44.5257 0.955078 43.4699L8.6407 41.7155L21.466 41.8051C21.37 41.0056 21.5128 40.5537 21.5128 39.7236C21.5128 29.1447 30.3203 20.5132 40.9101 20.5132C46.455 20.5132 51.4671 22.8797 54.9799 26.6502L53.4402 29.7147C50.5038 26.0701 45.9848 23.7343 40.9101 23.7343C32.027 23.7343 24.9035 30.917 24.9035 39.7236C24.9035 48.5361 32.0941 55.7233 40.9101 55.7233C44.1458 55.7233 47.1067 54.7139 49.7624 53.1997L56.9426 68.1582V68.1579Z" fill="#231F20"/>
<path fill-rule="evenodd" clip-rule="evenodd" d="M13.5444 25.6606C17.5602 25.6606 20.8309 28.9368 20.8309 32.9455C20.8309 36.956 17.5604 40.2239 13.5444 40.2239C9.53477 40.2239 6.25781 36.9561 6.25781 32.9455C6.25781 28.9368 9.53477 25.6606 13.5444 25.6606Z" fill="#231F20"/>
<path fill-rule="evenodd" clip-rule="evenodd" d="M24.0414 9.97852C28.1267 9.97852 31.4501 13.3072 31.4501 17.383C31.4501 21.465 28.1267 24.7918 24.0414 24.7918C19.9567 24.7918 16.6328 21.465 16.6328 17.383C16.6328 13.3072 19.9567 9.97852 24.0414 9.97852Z" fill="#231F20"/>
<path fill-rule="evenodd" clip-rule="evenodd" d="M42.156 4.58838C46.1779 4.58838 49.4566 7.8663 49.4566 11.8852C49.4566 15.8976 46.1779 19.1756 42.156 19.1756C38.1424 19.1756 34.8613 15.8976 34.8613 11.8852C34.8613 7.8663 38.1423 4.58838 42.156 4.58838Z" fill="#231F20"/>
<path fill-rule="evenodd" clip-rule="evenodd" d="M58.7093 10.5459C60.0209 10.5459 61.1614 11.1177 62.2183 11.6917L55.8323 24.7776C53.1725 23.6459 51.2988 21.0093 51.2988 17.9568C51.2988 13.879 54.5082 10.546 58.7093 10.546V10.5459Z" fill="#231F20"/>
<path fill-rule="evenodd" clip-rule="evenodd" d="M117.584 13.8022L120.269 23.4939L125.741 13.9123L137.001 13.9264L119.713 46.0216L100.08 46.0093L106.145 35.1817L101.121 13.8022H117.584Z" fill="#2B3E82"/>
<path fill-rule="evenodd" clip-rule="evenodd" d="M164.537 27.0487L172.933 45.9845H155.47L151.271 36.5939L149.078 46.0093H133.133L139.413 13.9752H156.391L153.943 24.9185L163.498 13.8022H175.369L164.537 27.0487Z" fill="#2B3E82"/>
<path fill-rule="evenodd" clip-rule="evenodd" d="M248.484 21.6771H243.114L237.754 45.9706H220.473C220.481 46.0151 224.311 29.6451 226.046 21.8519L219.373 21.6771L221.108 13.8022H250.215L248.484 21.6771H248.484Z" fill="#2B3E82"/>
<path fill-rule="evenodd" clip-rule="evenodd" d="M91.3069 52.274L89.9869 57.1721C85.7429 55.7005 80.2163 55.4302 76.5955 58.6434C74.8298 60.2058 73.736 62.2328 74.6916 64.2675C75.5837 66.1862 77.7827 66.4791 80.1472 66.5198C83.2097 66.5705 85.6128 65.5636 88.0405 64.436L86.2219 71.212C78.7746 75.019 67.696 74.5881 61.1757 69.46C59.5383 68.1721 58.6034 66.1107 58.4895 63.6612C58.2553 58.69 61.2224 54.7041 64.8981 52.4125C72.3332 47.7652 83.6863 47.9487 91.3069 52.2742V52.274Z" fill="#2B3E82"/>
<path fill-rule="evenodd" clip-rule="evenodd" d="M123.987 73.3564H112.057L113.709 65.9109L106.319 65.9009L104.669 73.2913L92.7988 73.3054L98.2745 49.1318H109.915L107.691 59.2328L115.061 59.2491L117.316 49.1177H129.011L123.987 73.3564Z" fill="#2B3E82"/>
<path fill-rule="evenodd" clip-rule="evenodd" d="M96.091 38.051L99.2087 38.0364L96.9562 46.1759H49.1328L51.0389 38.0364H54.9385C60.1355 28.0843 64.6421 17.8676 69.491 7.74023H92.6249L96.091 38.051ZM66.805 37.8638L74.0815 21.677L76.1645 37.8638H66.805Z" fill="#2B3E82"/>
<path fill-rule="evenodd" clip-rule="evenodd" d="M210.891 13.8022L216.992 46.0093H200.534L199.455 40.1186H190.341L187.464 46.0093H175.602L192.783 13.8022H210.891ZM197.636 32.4999L193.881 32.5344L196.594 27.0487L197.636 32.4999Z" fill="#2B3E82"/>
<path fill-rule="evenodd" clip-rule="evenodd" d="M161.605 73.3606H147.883L147.277 70.6741L140.903 70.6666L139.752 73.3054L128.82 73.2994L143.061 49.1177H155.795L161.605 73.3606ZM143.326 64.8774L145.146 60.5454L146.012 64.8774H143.326Z" fill="#2B3E82"/>
<path fill-rule="evenodd" clip-rule="evenodd" d="M195.577 54.3171H182.851L182.319 57.7805C185.875 57.9288 187.95 57.9493 190.636 58.4683C192.453 58.8163 194.273 60.4598 194.966 62.1918C196.004 64.8779 194.652 68.7072 192.608 70.5631C189.18 73.6744 182.092 73.5052 176.447 73.4017C171.136 73.2999 167.142 73.3529 167.154 73.361L171.665 48.8618H196.44L195.577 54.3171H195.577ZM184.268 62.7739C185.663 63.5572 185.535 65.2218 184.751 66.6175C183.969 68.0175 180.688 69.3277 180.79 67.7325L181.588 63.0811C181.882 62.2692 183.436 62.3096 184.268 62.7739H184.268Z" fill="#2B3E82"/>
</svg>
