<svg width="187" height="60" viewBox="0 0 187 60" fill="none" xmlns="http://www.w3.org/2000/svg">
<path fill-rule="evenodd" clip-rule="evenodd" d="M0 30.0001C0 13.4754 13.4895 0 30.0243 0C36.497 0 42.5024 2.06327 47.4176 5.57033L46.4706 7.61672C41.8578 4.22286 36.1687 2.21444 30.0213 2.21444C14.7081 2.21444 2.21473 14.6948 2.21473 30.0002H0L0 30.0001Z" fill="white"/>
<path fill-rule="evenodd" clip-rule="evenodd" d="M42.0453 51.1183L43.796 56.6321L41.7645 57.5917L38.6563 52.7053L36.7427 53.3523L37.1749 59.1026L35.1343 59.5634L33.1213 54.0878L31.1005 54.2649L30.3264 59.9999L28.0505 59.9054L27.3756 54.1428L25.3945 53.8193L23.2717 59.2171L21.031 58.6266L21.81 52.8212L19.9817 52.055L16.6353 56.8211L14.6222 55.7209L16.6872 50.2193L15.1201 49.0854L10.7395 52.9617L8.9603 51.3485L12.3524 46.537L11.0986 45.0746L5.9086 47.8324L4.61524 45.9754L8.9801 41.9341L8.12183 40.2263L2.33801 41.6946L1.53764 39.503L6.79457 36.6951L6.33488 34.8655L0.366177 34.9813C0.263781 34.1896 0.159784 33.3942 0.0546875 32.6023L5.8189 31.2865L15.4379 31.3537C15.3659 30.7541 15.473 30.4152 15.473 29.7926C15.473 21.8584 22.0786 15.3848 30.0209 15.3848C34.1796 15.3848 37.9387 17.1597 40.5733 19.9875L39.4185 22.2859C37.2162 19.5525 33.827 17.8006 30.0209 17.8006C23.3586 17.8006 18.016 23.1876 18.016 29.7926C18.016 36.4019 23.4089 41.7923 30.0209 41.7923C32.4477 41.7923 34.6684 41.0353 36.6602 39.8996L42.0453 51.1185V51.1183Z" fill="white"/>
<path fill-rule="evenodd" clip-rule="evenodd" d="M9.49617 19.2456C12.5081 19.2456 14.9611 21.7027 14.9611 24.7092C14.9611 27.7171 12.5082 30.1681 9.49617 30.1681C6.48897 30.1681 4.03125 27.7172 4.03125 24.7092C4.03125 21.7027 6.48897 19.2456 9.49617 19.2456Z" fill="white"/>
<path fill-rule="evenodd" clip-rule="evenodd" d="M17.3689 7.48389C20.4329 7.48389 22.9254 9.98039 22.9254 13.0372C22.9254 16.0988 20.4329 18.5939 17.3689 18.5939C14.3054 18.5939 11.8125 16.0988 11.8125 13.0372C11.8125 9.98039 14.3054 7.48389 17.3689 7.48389Z" fill="white"/>
<path fill-rule="evenodd" clip-rule="evenodd" d="M30.9554 3.44141C33.9718 3.44141 36.4308 5.89985 36.4308 8.91402C36.4308 11.9233 33.9718 14.3818 30.9554 14.3818C27.9452 14.3818 25.4844 11.9233 25.4844 8.91402C25.4844 5.89985 27.9451 3.44141 30.9554 3.44141Z" fill="white"/>
<path fill-rule="evenodd" clip-rule="evenodd" d="M43.3703 7.90967C44.3541 7.90967 45.2095 8.33851 46.0021 8.76905L41.2126 18.5834C39.2178 17.7346 37.8125 15.7572 37.8125 13.4678C37.8125 10.4095 40.2195 7.90977 43.3703 7.90977V7.90967Z" fill="white"/>
<path fill-rule="evenodd" clip-rule="evenodd" d="M87.526 10.3516L89.5404 17.6203L93.6442 10.4341L102.089 10.4447L89.1235 34.5161L74.3984 34.5068L78.9468 26.3861L75.179 10.3516H87.526Z" fill="white"/>
<path fill-rule="evenodd" clip-rule="evenodd" d="M122.74 20.2864L129.038 34.4882H115.941L112.791 27.4453L111.146 34.5068H99.1873L103.898 10.4813H116.631L114.795 18.6888L121.961 10.3516H130.864L122.74 20.2864Z" fill="white"/>
<path fill-rule="evenodd" clip-rule="evenodd" d="M185.7 16.2577H181.673L177.653 34.4778H164.692C164.698 34.5112 167.571 22.2337 168.872 16.3888L163.867 16.2577L165.168 10.3516H186.999L185.7 16.2577H185.7Z" fill="white"/>
<path fill-rule="evenodd" clip-rule="evenodd" d="M67.8181 39.2055L66.8281 42.8791C63.6451 41.7754 59.5001 41.5726 56.7845 43.9825C55.4603 45.1543 54.6399 46.6746 55.3566 48.2006C56.0256 49.6397 57.6749 49.8593 59.4483 49.8899C61.7451 49.9278 63.5475 49.1727 65.3682 48.327L64.0043 53.409C58.4189 56.2642 50.1099 55.9411 45.2197 52.095C43.9916 51.129 43.2904 49.583 43.205 47.7459C43.0294 44.0175 45.2547 41.0281 48.0115 39.3093C53.5878 35.8239 62.1026 35.9616 67.8181 39.2056V39.2055Z" fill="white"/>
<path fill-rule="evenodd" clip-rule="evenodd" d="M92.3286 55.0174H83.3812L84.6201 49.4333L79.0775 49.4258L77.8404 54.9686L68.9375 54.9792L73.0443 36.849H81.7748L80.1069 44.4247L85.6344 44.4369L87.3251 36.8384H96.0964L92.3286 55.0174Z" fill="white"/>
<path fill-rule="evenodd" clip-rule="evenodd" d="M71.4062 28.5382L73.7444 28.5273L72.055 34.6319H36.1875L37.6171 28.5273H40.5418C44.4395 21.0632 47.8194 13.4007 51.4561 5.80518H68.8066L71.4062 28.5382ZM49.4417 28.3978L54.899 16.2577L56.4612 28.3978H49.4417Z" fill="white"/>
<path fill-rule="evenodd" clip-rule="evenodd" d="M157.506 10.3516L162.082 34.5068H149.738L148.929 30.0888H142.094L139.936 34.5068H131.039L143.925 10.3516H157.506ZM147.565 24.3748L144.748 24.4007L146.783 20.2864L147.565 24.3748Z" fill="white"/>
<path fill-rule="evenodd" clip-rule="evenodd" d="M120.542 55.0205H110.25L109.795 53.0057L105.015 53L104.152 54.9792L95.9531 54.9747L106.634 36.8384H116.184L120.542 55.0205ZM106.832 48.6582L108.198 45.4092L108.847 48.6582H106.832Z" fill="white"/>
<path fill-rule="evenodd" clip-rule="evenodd" d="M146.02 40.7375H136.476L136.077 43.335C138.744 43.4462 140.3 43.4616 142.314 43.8509C143.677 44.1118 145.042 45.3445 145.562 46.6435C146.341 48.658 145.327 51.53 143.793 52.922C141.223 55.2554 135.906 55.1285 131.672 55.0509C127.689 54.9745 124.694 55.0143 124.703 55.0204L128.086 36.646H146.668L146.02 40.7375H146.02ZM137.539 47.0801C138.585 47.6676 138.489 48.916 137.901 49.9627C137.314 51.0128 134.854 51.9954 134.93 50.799L135.529 47.3105C135.749 46.7016 136.914 46.7318 137.539 47.0801H137.539Z" fill="white"/>
</svg>
