<svg width="0" height="0" class="hidden">
  <symbol xmlns="http://www.w3.org/2000/svg" viewBox="0 0 7 13" id="ic_arr_hor">
    <path d="M6 1L1.61152 5.82733C1.26477 6.20875 1.26477 6.79125 1.61152 7.17267L6 12" stroke="currentColor" stroke-width="2" stroke-linecap="round" fill="none"></path>
  </symbol>
  <symbol xmlns="http://www.w3.org/2000/svg" viewBox="0 0 10 7" id="ic_arr_ver">
    <path d="M1 1L5 5L9 1" stroke="currentColor" stroke-width="2" fill="none"></path>
  </symbol>
  <symbol xmlns="http://www.w3.org/2000/svg" viewBox="0 0 28 28" id="ic_arr_ver_big">
    <rect width="2.23704" height="19.0148" rx="1.11852" transform="matrix(0.707107 -0.707107 -0.707107 -0.707107 13.832 27.2031)" fill="currentColor"></rect>
    <rect width="2.23704" height="19.0148" rx="1.11852" transform="matrix(0.707107 0.707107 0.707107 -0.707107 12.25 25.6211)" fill="currentColor"></rect>
  </symbol>
  <symbol xmlns="http://www.w3.org/2000/svg" viewBox="0 0 14 12" id="ic_arrow_hor">
    <path d="M1 5.8001L13 5.8001M13 5.8001L8.41485 1.0001M13 5.8001L8.41485 10.6001" stroke="currentColor" stroke-width="2" stroke-linecap="round" stroke-linejoin="round" fill="none"></path>
  </symbol>
  <symbol xmlns="http://www.w3.org/2000/svg" viewBox="0 0 21 12" id="ic_arrow_hor_big">
    <path d="M1 5.8001L20 5.8001M20 5.8001L15.4148 1.0001M20 5.8001L15.4148 10.6001" stroke="currentColor" stroke-width="2" stroke-linecap="round" stroke-linejoin="round" fill="none"></path>
  </symbol>
  <symbol xmlns="http://www.w3.org/2000/svg" viewBox="0 0 20 18" id="ic_cart">
    <path d="M1 1H3L3.27273 4M3.27273 4L3.8224 10.0464C3.92104 11.1314 4.86996 11.9379 5.95668 11.8602L16.3908 11.1149C17.3299 11.0479 18.095 10.3349 18.2282 9.40287L19 4H3.27273Z" stroke="currentColor" stroke-width="2" stroke-linecap="round" stroke-linejoin="round" fill="none"></path>
    <path d="M7 17C7.55228 17 8 16.5523 8 16C8 15.4477 7.55228 15 7 15C6.44772 15 6 15.4477 6 16C6 16.5523 6.44772 17 7 17Z" stroke="currentColor" stroke-width="2" stroke-linecap="round" stroke-linejoin="round" fill="none"></path>
    <path d="M15 17C15.5523 17 16 16.5523 16 16C16 15.4477 15.5523 15 15 15C14.4477 15 14 15.4477 14 16C14 16.5523 14.4477 17 15 17Z" stroke="currentColor" stroke-width="2" stroke-linecap="round" stroke-linejoin="round" fill="none"></path>
  </symbol>
  <symbol xmlns="http://www.w3.org/2000/svg" viewBox="0 0 20 26" id="ic_cart2">
    <path d="M1 9H3L3.27273 12M3.27273 12L3.8224 18.0464C3.92104 19.1314 4.86996 19.9379 5.95668 19.8602L16.3908 19.1149C17.3299 19.0479 18.095 18.3349 18.2282 17.4029L19 12H3.27273Z" stroke="currentColor" stroke-width="2" stroke-linecap="round" stroke-linejoin="round" fill="none"></path>
    <path d="M7 25C7.55228 25 8 24.5523 8 24C8 23.4477 7.55228 23 7 23C6.44772 23 6 23.4477 6 24C6 24.5523 6.44772 25 7 25Z" stroke="currentColor" stroke-width="2" stroke-linecap="round" stroke-linejoin="round" fill="none"></path>
    <path d="M15 25C15.5523 25 16 24.5523 16 24C16 23.4477 15.5523 23 15 23C14.4477 23 14 23.4477 14 24C14 24.5523 14.4477 25 15 25Z" stroke="currentColor" stroke-width="2" stroke-linecap="round" stroke-linejoin="round" fill="none"></path>
    <rect x="10" width="2" height="8" fill="currentColor"></rect>
    <rect x="15" y="3" width="2" height="8" transform="rotate(90 15 3)" fill="currentColor"></rect>
  </symbol>
  <symbol xmlns="http://www.w3.org/2000/svg" viewBox="0 0 14 10" id="ic_check">
    <path fill-rule="evenodd" clip-rule="evenodd" d="M5.24049 6.39662L10.9302 0.706956C11.3207 0.316432 11.9538 0.316431 12.3444 0.706956L12.7191 1.08172C13.1097 1.47225 13.1097 2.10541 12.7191 2.49594L6.37532 8.83975C6.35913 8.85853 6.34213 8.87685 6.32431 8.89466L5.95305 9.26593C5.73454 9.48444 5.44006 9.58068 5.15463 9.55467C4.92868 9.53489 4.70818 9.43853 4.53525 9.26561L4.16048 8.89084C4.1442 8.87456 4.1286 8.85786 4.11368 8.84077L1.2011 5.92819C0.810572 5.53766 0.810572 4.9045 1.2011 4.51397L1.57236 4.14271C1.96288 3.75219 2.59605 3.75219 2.98657 4.14271L5.24049 6.39662Z" fill="currentColor"></path>
  </symbol>
  <symbol xmlns="http://www.w3.org/2000/svg" viewBox="0 0 18 18" id="ic_clear">
    <path d="M1.7998 4.0501H16.1998M6.2998 1.3501H11.6998M12.1498 16.6501H5.8498C4.85569 16.6501 4.0498 15.8442 4.0498 14.8501L3.63887 4.98757C3.61756 4.47625 4.02633 4.0501 4.53809 4.0501H13.4615C13.9733 4.0501 14.382 4.47625 14.3607 4.98757L13.9498 14.8501C13.9498 15.8442 13.1439 16.6501 12.1498 16.6501Z" stroke="currentColor" stroke-width="2" stroke-linecap="round" fill="none"></path>
  </symbol>
  <symbol xmlns="http://www.w3.org/2000/svg" viewBox="0 0 20 20" id="ic_delete">
    <path d="M10.4581 9.99799L19.9056 0.550468C20.0315 0.424525 20.0315 0.220371 19.9056 0.0944273C19.7796 -0.0314758 19.5755 -0.0314758 19.4495 0.0944273L10.002 9.54195L0.554498 0.0944273C0.426377 -0.0292988 0.222223 -0.0257511 0.0984571 0.102369C-0.0222453 0.227345 -0.0222453 0.425492 0.0984571 0.550468L9.54598 9.99799L0.0984571 19.4455C-0.0296632 19.5693 -0.0332109 19.7734 0.0905554 19.9016C0.214322 20.0297 0.418476 20.0332 0.546596 19.9095C0.549297 19.9069 0.551918 19.9042 0.554498 19.9016L10.002 10.454L19.4495 19.9016C19.5777 20.0253 19.7818 20.0218 19.9056 19.8937C20.0263 19.7687 20.0263 19.5705 19.9056 19.4455L10.4581 9.99799Z" fill="currentColor"></path>
  </symbol>
  <symbol xmlns="http://www.w3.org/2000/svg" viewBox="0 0 24 24" id="ic_edit">
    <path d="M12 22C12.5523 22 13 21.5523 13 21C13 20.4477 12.5523 20 12 20V22ZM12.4453 4.01216C12.9968 4.04235 13.4683 3.61979 13.4985 3.06833C13.5287 2.51687 13.1061 2.04535 12.5547 2.01515L12.4453 4.01216ZM11.7627 9.23726L11.0556 8.53015L11.7627 9.23726ZM17.411 3.58902L18.1181 4.29613L17.411 3.58902ZM9 15L8.01005 14.8586C7.96411 15.1802 8.07723 15.504 8.3134 15.727C8.54957 15.9501 8.87936 16.0445 9.19778 15.9802L9 15ZM9.04745 14.6678L8.0575 14.5264L8.0575 14.5264L9.04745 14.6678ZM9.48793 14.9016L9.29015 13.9213L9.48793 14.9016ZM12.8012 13.7247L12.2287 12.9048H12.2287L12.8012 13.7247ZM11.564 14.3882L11.9302 15.3187H11.9302L11.564 14.3882ZM10.1791 10.9786L9.34943 10.4203V10.4203L10.1791 10.9786ZM9.49029 12.3561L8.54586 12.0274V12.0274L9.49029 12.3561ZM16.7071 4.29289C16.3166 3.90237 15.6834 3.90237 15.2929 4.29289C14.9024 4.68342 14.9024 5.31658 15.2929 5.70711L16.7071 4.29289ZM18.1213 8.53553C18.5118 8.92606 19.145 8.92606 19.5355 8.53553C19.9261 8.14501 19.9261 7.51184 19.5355 7.12132L18.1213 8.53553ZM16 16C15.4477 16 15 16.4477 15 17C15 17.5523 15.4477 18 16 18V16ZM21.88 10.8011C21.7701 10.2598 21.2423 9.91012 20.701 10.02C20.1598 10.1299 19.8101 10.6577 19.92 11.1989L21.88 10.8011ZM12 20C7.58172 20 4 16.4183 4 12H2C2 17.5228 6.47715 22 12 22V20ZM4 12C4 7.58172 7.58172 4 12 4V2C6.47715 2 2 6.47715 2 12H4ZM12 4C12.1495 4 12.298 4.00409 12.4453 4.01216L12.5547 2.01515C12.371 2.00509 12.186 2 12 2V4ZM12.4698 9.94436L18.1181 4.29613L16.7039 2.88191L11.0556 8.53015L12.4698 9.94436ZM19.5323 5.71034L13.6703 11.5723L15.0845 12.9865L20.9465 7.12455L19.5323 5.71034ZM9.98995 15.1414L10.0374 14.8093L8.0575 14.5264L8.01005 14.8586L9.98995 15.1414ZM9.29015 13.9213L8.80222 14.0198L9.19778 15.9802L9.68571 15.8818L9.29015 13.9213ZM13.6703 11.5723C12.8844 12.3582 12.5736 12.664 12.2287 12.9048L13.3737 14.5447C13.8964 14.1797 14.3472 13.7239 15.0845 12.9865L13.6703 11.5723ZM9.68571 15.8818C10.7079 15.6755 11.3371 15.5522 11.9302 15.3187L11.1977 13.4577C10.8064 13.6118 10.3796 13.7015 9.29015 13.9213L9.68571 15.8818ZM12.2287 12.9048C11.9079 13.1288 11.5618 13.3144 11.1977 13.4577L11.9302 15.3187C12.44 15.1181 12.9245 14.8583 13.3737 14.5447L12.2287 12.9048ZM11.0556 8.53015C10.243 9.34283 9.74031 9.83942 9.34943 10.4203L11.0087 11.5369C11.2665 11.1538 11.6034 10.8108 12.4698 9.94436L11.0556 8.53015ZM10.0374 14.8093C10.2107 13.5963 10.2829 13.121 10.4347 12.6848L8.54586 12.0274C8.31572 12.6886 8.22004 13.3887 8.0575 14.5264L10.0374 14.8093ZM9.34943 10.4203C9.01364 10.9192 8.74356 11.4594 8.54586 12.0274L10.4347 12.6848C10.5759 12.2791 10.7688 11.8933 11.0087 11.5369L9.34943 10.4203ZM19.5323 4.29613C19.9228 4.68665 19.9228 5.31981 19.5323 5.71034L20.9465 7.12455C22.1181 5.95298 22.1181 4.05348 20.9465 2.88191L19.5323 4.29613ZM20.9465 2.88191C19.7749 1.71034 17.8754 1.71034 16.7039 2.88191L18.1181 4.29613C18.5086 3.9056 19.1418 3.9056 19.5323 4.29613L20.9465 2.88191ZM15.2929 5.70711L18.1213 8.53553L19.5355 7.12132L16.7071 4.29289L15.2929 5.70711ZM20 12C20 14.2091 18.2091 16 16 16V18C19.3137 18 22 15.3137 22 12H20ZM19.92 11.1989C19.9723 11.4569 20 11.7247 20 12H22C22 11.5903 21.9588 11.1893 21.88 10.8011L19.92 11.1989Z" fill="currentColor"></path>
  </symbol>
  <symbol xmlns="http://www.w3.org/2000/svg" viewBox="0 0 27 25" id="ic_file">
    <path d="M24.7764 2.22618C21.8116 -0.742059 17.0015 -0.742059 14.0366 2.22618L1.72548 14.3936C-0.57516 16.6976 -0.57516 20.4464 1.72548 22.7471C4.02955 25.0511 7.77493 25.0511 10.079 22.7471L22.3902 10.5797C24.0369 8.93297 24.0369 6.25915 22.3902 4.61241C20.7434 2.96567 18.0696 2.96567 16.4229 4.61241L7.16553 13.8663C6.83687 14.1984 6.83687 14.7291 7.16553 15.0612C7.49419 15.3898 8.02828 15.3898 8.35694 15.0612L17.6143 5.80382C18.6003 4.81783 20.2059 4.81783 21.1953 5.80382C22.1813 6.7898 22.1813 8.39888 21.1953 9.38487L8.88417 21.5522C7.23743 23.199 4.56704 23.199 2.91688 21.5522C1.27014 19.9055 1.27014 17.2317 2.91688 15.585L15.1082 3.53741C17.4157 1.22992 21.1577 1.22992 23.4617 3.53741C25.7692 5.8449 25.7692 9.58344 23.4617 11.8909L14.3277 21.0284C13.9956 21.3605 13.9956 21.8912 14.3277 22.2233C14.6563 22.5554 15.1904 22.5554 15.5225 22.2233L24.7764 12.9659C27.7412 10.0011 27.7412 5.19099 24.7764 2.22618Z" fill="currentColor"></path>
  </symbol>
  <symbol xmlns="http://www.w3.org/2000/svg" viewBox="0 0 24 24" id="ic_location">
    <path d="M11.9974 21.5999C11.9974 21.5999 19.5105 14.9216 19.5105 9.91294C19.5105 5.76361 16.1468 2.3999 11.9974 2.3999C7.84808 2.3999 4.48438 5.76361 4.48438 9.91294C4.48438 14.9216 11.9974 21.5999 11.9974 21.5999Z" stroke="currentColor" stroke-width="2" fill="none"></path>
    <path d="M14.3977 9.60005C14.3977 10.9255 13.3232 12.0001 11.9977 12.0001C10.6722 12.0001 9.59773 10.9255 9.59773 9.60005C9.59773 8.27457 10.6722 7.20005 11.9977 7.20005C13.3232 7.20005 14.3977 8.27457 14.3977 9.60005Z" stroke="currentColor" stroke-width="2" fill="none"></path>
  </symbol>
  <symbol xmlns="http://www.w3.org/2000/svg" viewBox="0 0 25 20" id="ic_logout">
    <path d="M13 5.5V1H1V18.5H13V13.5" stroke="currentColor" stroke-width="2" stroke-linecap="round" stroke-linejoin="round" fill="none"></path>
    <path d="M19.0352 5.25732L23.2778 9.49996L19.0352 13.7426" stroke="currentColor" stroke-width="2" stroke-linecap="round" stroke-linejoin="round" fill="none"></path>
    <path d="M7.72183 9.49985H23.2782" stroke="currentColor" stroke-width="2" stroke-linecap="round" stroke-linejoin="round" fill="none"></path>
  </symbol>
  <symbol xmlns="http://www.w3.org/2000/svg" viewBox="0 0 16 14" id="ic_menu">
    <rect width="16" height="2" fill="currentColor"></rect>
    <rect y="6" width="16" height="2" fill="currentColor"></rect>
    <rect y="12" width="16" height="2" fill="currentColor"></rect>
  </symbol>
  <symbol xmlns="http://www.w3.org/2000/svg" viewBox="0 0 12 2" id="ic_minus">
    <rect width="12" height="2" transform="matrix(-1 0 0 1 12 0)" fill="currentColor"></rect>
  </symbol>
  <symbol xmlns="http://www.w3.org/2000/svg" viewBox="0 0 24 24" id="ic_notice">
    <circle cx="12" cy="17" r="1" fill="currentColor"></circle>
    <path d="M11.9999 8.99997V14M4.32789 21H19.6721C21.4445 21 22.5649 19.1433 21.7041 17.6324L14.032 4.16592C13.1464 2.61136 10.8536 2.61136 9.96798 4.16592L2.29587 17.6324C1.4351 19.1433 2.55546 21 4.32789 21Z" stroke="currentColor" stroke-width="1.5" stroke-linecap="round" stroke-linejoin="round" fill="none"></path>
  </symbol>
  <symbol xmlns="http://www.w3.org/2000/svg" viewBox="0 0 28 21" id="ic_phone">
    <path d="M21.4443 11.1685L17.5525 7.27661M17.5525 7.27661L20.9897 3.83582M17.5525 7.27661L26.3956 7.27661M19.0365 17.1923C19.0365 17.1923 17.8445 18.363 17.5525 18.7062C17.0766 19.214 16.516 19.4538 15.781 19.4538C15.7104 19.4538 15.635 19.4538 15.5643 19.4491C14.1651 19.3597 12.8648 18.8143 11.8896 18.3489C9.22301 17.0607 6.88153 15.2317 4.9358 12.9138C3.32927 10.9815 2.25511 9.19488 1.54372 7.27663C1.10557 6.10593 0.945391 5.19382 1.01606 4.33343C1.06317 3.78334 1.27518 3.32729 1.66621 2.93706L3.27273 1.33381C3.50358 1.11754 3.74857 1 3.98884 1C4.28565 1 4.52592 1.17866 4.67668 1.32911C4.68139 1.33381 4.6861 1.33852 4.69081 1.34322C4.9782 1.61121 5.25145 1.8886 5.53883 2.1848C5.68488 2.33525 5.83564 2.4857 5.9864 2.64086L7.27256 3.92439C7.77195 4.42276 7.77195 4.88352 7.27256 5.38189C7.13594 5.51823 7.00402 5.65458 6.8674 5.78622C6.47165 6.19056 6.78253 5.88032 6.37266 6.24704C6.36323 6.25644 6.35381 6.26115 6.3491 6.27055C5.94394 6.67489 6.01932 7.06982 6.10412 7.33781C6.10883 7.35192 6.11354 7.36602 6.11825 7.38013C6.45275 8.1888 6.92387 8.95046 7.63998 9.85787L7.64469 9.86257C8.94499 11.4611 10.316 12.707 11.8283 13.6615C12.0214 13.7837 12.2193 13.8824 12.4077 13.9765C12.5773 14.0611 12.7375 14.141 12.8741 14.2256C12.893 14.2351 12.9118 14.2492 12.9307 14.2586C13.0909 14.3385 13.2416 14.3761 13.3971 14.3761C13.7881 14.3761 14.0331 14.1316 14.1132 14.0517L15.0367 13.1301C15.1968 12.9703 15.4512 12.7775 15.7481 12.7775C16.0401 12.7775 16.2804 12.9609 16.4265 13.1207C16.4312 13.1254 16.4312 13.1254 16.4359 13.1301L19.0318 15.7207C19.517 16.2003 19.0365 17.1923 19.0365 17.1923Z" stroke="currentColor" stroke-width="2" stroke-linecap="round" stroke-linejoin="round" fill="none"></path>
  </symbol>
  <symbol xmlns="http://www.w3.org/2000/svg" viewBox="0 0 12 12" id="ic_plus">
    <path fill-rule="evenodd" clip-rule="evenodd" d="M7 5V0H5V5H0V7H5V12H7V7H12V5H7Z" fill="currentColor"></path>
  </symbol>
  <symbol xmlns="http://www.w3.org/2000/svg" viewBox="0 0 17 17" id="ic_reset">
    <path d="M8.5 16C4.35786 16 1 12.6421 1 8.5C1 6.57911 1.72213 4.82689 2.90973 3.5L5.16667 1M8.5 1C12.6421 1 16 4.35786 16 8.5C16 10.4209 15.2779 12.1731 14.0903 13.5L11.8333 16M1 1H5.16667M5.16667 1V5.16667M16 16H11.8333M11.8333 16V11.8333" stroke="currentColor" stroke-width="1.67" stroke-linecap="round" stroke-linejoin="round" fill="none"></path>
  </symbol>
  <symbol xmlns="http://www.w3.org/2000/svg" viewBox="0 0 20 20" id="ic_save">
    <path d="M17 19H3C2.46957 19 1.96086 18.7893 1.58579 18.4142C1.21071 18.0391 1 17.5304 1 17V3C1 2.46957 1.21071 1.96086 1.58579 1.58579C1.96086 1.21071 2.46957 1 3 1H14L19 6V17C19 17.5304 18.7893 18.0391 18.4142 18.4142C18.0391 18.7893 17.5304 19 17 19Z" stroke="currentColor" stroke-width="2" stroke-linecap="round" stroke-linejoin="round" fill="none"></path>
    <path d="M15 19V11H5V19" stroke="currentColor" stroke-width="2" stroke-linecap="round" stroke-linejoin="round" fill="none"></path>
    <path d="M13 6H7" stroke="currentColor" stroke-width="2" stroke-linecap="round" stroke-linejoin="round" fill="none"></path>
  </symbol>
  <symbol xmlns="http://www.w3.org/2000/svg" viewBox="0 0 20 20" id="ic_search">
    <path d="M19 19L14.6569 14.6569M14.6569 14.6569C16.1046 13.2091 17 11.2091 17 9C17 4.58172 13.4183 1 9 1C4.58172 1 1 4.58172 1 9C1 13.4183 4.58172 17 9 17C11.2091 17 13.2091 16.1046 14.6569 14.6569Z" stroke="currentColor" stroke-width="2" stroke-linecap="round" stroke-linejoin="round" fill="none"></path>
  </symbol>
  <symbol xmlns="http://www.w3.org/2000/svg" viewBox="0 0 21 19" id="ic_telegram">
    <path d="M19.0333 0.22916C18.7436 0.241595 18.4777 0.323809 18.2442 0.414639C18.0284 0.498485 17.2535 0.819822 16.0197 1.33044C14.7859 1.84106 13.151 2.51808 11.4083 3.24126C7.92296 4.68763 4.00633 6.31461 1.99945 7.14792C1.93054 7.17625 1.65064 7.26079 1.34152 7.49376C1.03167 7.72726 0.6875 8.23403 0.6875 8.78825C0.6875 9.23533 0.913693 9.69066 1.18683 9.95135C1.45996 10.212 1.73677 10.3339 1.96812 10.4247C2.64495 10.6907 4.73645 11.5148 5.64551 11.8738C5.96397 12.8154 6.71194 15.0336 6.88697 15.5795H6.88501C7.02738 16.0239 7.16616 16.3134 7.35888 16.5552C7.45524 16.6761 7.57026 16.7856 7.71134 16.872C7.76547 16.9052 7.82541 16.931 7.88562 16.9551C7.89401 16.9586 7.90265 16.9595 7.91107 16.9629L7.88757 16.9571C7.90503 16.964 7.9207 16.9742 7.93849 16.9802C7.96747 16.9901 7.98757 16.9898 8.0266 16.9976C8.16396 17.0393 8.30107 17.0672 8.42802 17.0672C8.97303 17.0672 9.30722 16.7754 9.30722 16.7754L9.32876 16.76L11.6824 14.7951L14.5648 17.4246C14.6164 17.4965 15.0285 18.0487 15.9845 18.0487C16.5541 18.0487 17.0064 17.7724 17.2945 17.4806C17.5826 17.1889 17.7621 16.8903 17.8428 16.4856V16.4818V16.4798C17.8988 16.1926 20.6664 2.48582 20.6664 2.48582L20.6605 2.50901C20.7464 2.13078 20.7717 1.76501 20.6703 1.39227C20.5689 1.01952 20.2951 0.655762 19.9654 0.464873C19.6357 0.273984 19.323 0.216725 19.0333 0.22916ZM18.6378 2.39502C18.529 2.93355 16.0661 15.1423 15.9062 15.9524L13.0434 13.3421C12.3054 12.669 11.1548 12.6453 10.3881 13.2842L8.92735 14.5033L9.70669 11.497C9.70669 11.497 15.083 6.12738 15.4068 5.81479C15.6675 5.56451 15.7221 5.47678 15.7221 5.38973C15.7221 5.27399 15.6617 5.19073 15.5224 5.19073C15.397 5.19073 15.2268 5.30922 15.1366 5.36461C13.9851 6.07293 9.05515 8.84513 6.66765 10.1851C6.57797 10.1322 6.48976 10.0772 6.39156 10.0383C5.60817 9.72894 4.10246 9.13332 3.22133 8.78631C5.30092 7.92273 8.86569 6.44289 12.1857 5.06514C13.9281 4.34208 15.5625 3.66445 16.7951 3.15432C17.8357 2.7237 18.3784 2.50074 18.6378 2.39502ZM15.8748 16.0954H15.8768L15.8748 16.1031C15.8765 16.0946 15.8737 16.1014 15.8748 16.0954Z" fill="currentColor"></path>
  </symbol>
  <symbol xmlns="http://www.w3.org/2000/svg" viewBox="0 0 18 16" id="ic_telegram2">
    <path d="M1.29347 7.25021C1.29347 7.25021 8.82101 4.00768 11.4317 2.86591C12.4325 2.40923 15.8264 0.947758 15.8264 0.947758C15.8264 0.947758 17.3928 0.308418 17.2623 1.86116C17.2187 2.50057 16.8707 4.73835 16.5226 7.15887C16.0004 10.5841 15.4348 14.329 15.4348 14.329C15.4348 14.329 15.3477 15.3795 14.6081 15.5621C13.8684 15.7448 12.65 14.9228 12.4325 14.7401C12.2584 14.6031 9.16908 12.5479 8.03778 11.5432C7.73319 11.2692 7.38511 10.7212 8.08126 10.0818C9.64771 8.57465 11.5187 6.7022 12.65 5.51479C13.1722 4.96672 13.6943 3.68798 11.5187 5.24072C8.42939 7.47857 5.38357 9.57939 5.38357 9.57939C5.38357 9.57939 4.68736 10.0361 3.38203 9.62502C2.07663 9.21405 0.553721 8.66598 0.553721 8.66598C0.553721 8.66598 -0.4905 7.98094 1.29347 7.25021Z" fill="currentColor"></path>
  </symbol>
  <symbol xmlns="http://www.w3.org/2000/svg" viewBox="0 0 16 20" id="ic_user">
    <path d="M1 19C1 16.7909 4.13401 15 8 15C11.866 15 15 16.7909 15 19" stroke="currentColor" stroke-width="2" stroke-linecap="round" stroke-linejoin="round" fill="none"></path>
    <path d="M8 11C10.7614 11 13 8.76142 13 6C13 3.23858 10.7614 1 8 1C5.23858 1 3 3.23858 3 6C3 8.76142 5.23858 11 8 11Z" stroke="currentColor" stroke-width="2" stroke-linecap="round" stroke-linejoin="round" fill="none"></path>
  </symbol>
  <symbol xmlns="http://www.w3.org/2000/svg" viewBox="0 0 24 24" id="ic_viber">
    <path d="M11.1904 0.000962413C9.32032 0.0131162 5.52814 0.199716 3.07494 2.40891C3.06303 2.41946 3.05142 2.43035 3.04013 2.44156C1.43679 4.06136 0.726562 6.38331 0.726562 9.47707V11.148C0.726562 14.2418 1.44135 16.5686 3.07603 18.2184C3.0873 18.23 3.09891 18.2412 3.11084 18.2521C3.81308 18.8835 4.72167 19.3483 5.73876 19.7195V21.7182C5.73876 22.4086 6.16867 23.0327 6.81233 23.2792C7.00647 23.3536 7.21024 23.3902 7.40949 23.3902C7.87576 23.3902 8.33068 23.1938 8.65275 22.8351C8.66303 22.824 9.93391 21.4484 10.7031 20.5991C11.1506 20.613 11.6094 20.6242 11.8637 20.6242C13.2972 20.6242 17.8504 20.742 20.6546 18.2173C20.6665 18.2064 20.6781 18.1951 20.6894 18.1836C22.2928 16.5638 23.003 14.2418 23.003 11.148L23.0019 9.47707C23.0019 6.38277 22.288 4.05617 20.6535 2.40782C20.6422 2.3966 20.6306 2.38571 20.6187 2.37516C17.8447 -0.12081 13.2983 0.000962413 11.8648 0.000962413C11.6856 0.000962413 11.4575 -0.000773856 11.1904 0.000962413ZM11.8648 1.67302C13.2949 1.67302 17.4535 1.7983 19.4842 3.60852C20.733 4.88032 21.3312 6.64523 21.3312 9.47707L21.3323 11.1491C21.3321 13.9793 20.73 15.7489 19.5201 16.9839C17.4486 18.8322 13.2939 18.9521 11.8637 18.9521C11.5212 18.9521 11.007 18.9522 10.3855 18.9205C10.2609 18.9141 10.1364 18.9357 10.0212 18.9837C9.90598 19.0318 9.803 19.105 9.7198 19.1981C9.06127 19.9355 7.41928 21.7062 7.41928 21.7062C7.41598 21.7098 7.41272 21.7134 7.40949 21.7171V19.1578C7.40952 18.9779 7.35153 18.8027 7.24414 18.6584C7.13676 18.514 6.9857 18.4082 6.81342 18.3566C5.71139 18.0262 4.85982 17.5663 4.24641 17.0199C2.996 15.7461 2.39729 13.9801 2.39729 11.148V9.47707C2.39729 6.64699 2.99896 4.87744 4.20834 3.64227C6.27899 1.79352 10.4344 1.67302 11.8648 1.67302ZM11.8648 3.90353C11.5574 3.90353 11.3079 4.15322 11.3079 4.46088C11.3079 4.76854 11.5574 5.01824 11.8648 5.01824C14.6282 5.01824 16.877 7.26883 16.877 10.0344V10.5918C16.877 10.8994 17.1265 11.1491 17.4339 11.1491C17.7413 11.1491 17.9908 10.8994 17.9908 10.5918V10.0344C17.9908 6.65407 15.2424 3.90353 11.8648 3.90353ZM7.45952 4.46088C7.10366 4.46033 6.63701 4.63661 6.32069 4.87237C5.84508 5.2274 5.34758 5.71062 5.21448 6.31256C5.19666 6.39449 5.18628 6.47718 5.18293 6.55967C5.15732 7.18669 5.40241 7.8234 5.66806 8.36236C6.29347 9.63257 7.12135 10.8621 8.02187 11.9601C8.3098 12.3113 8.62393 12.6375 8.94861 12.9529C9.26382 13.2773 9.58975 13.5917 9.9406 13.8804C11.0377 14.7816 12.2663 15.6102 13.5355 16.2361C14.069 16.4991 14.6968 16.7405 15.3172 16.7227C15.4057 16.7199 15.4951 16.7095 15.5837 16.69C16.1851 16.5574 16.668 16.0589 17.0227 15.5829C17.2583 15.2664 17.4344 14.7999 17.4339 14.4432C17.4333 14.2325 17.3376 14.0309 17.1282 13.8543C16.5095 13.3326 16.2237 13.1756 15.3694 12.6623C15.0135 12.4488 14.4716 12.2638 14.187 12.2638C13.9927 12.2638 13.7597 12.4129 13.6171 12.5556C13.2518 12.9212 13.1317 13.3786 12.4913 13.3786C11.8648 13.3786 10.7704 12.7404 9.9852 11.9155C9.16097 11.1296 8.52331 10.0344 8.52331 9.4074C8.52331 8.76645 8.97268 8.63819 9.33801 8.27201C9.48058 8.12989 9.63713 7.8972 9.63713 7.70268C9.63713 7.41787 9.45232 6.88316 9.23903 6.52701C8.72611 5.67147 8.5698 5.38544 8.04798 4.76678C7.87144 4.55721 7.67004 4.46144 7.45952 4.46088ZM12.103 5.58539C11.8006 5.56867 11.5339 5.8046 11.5178 6.11226C11.5016 6.41937 11.7368 6.68176 12.0442 6.69792C13.8175 6.79156 15.2062 8.25758 15.2062 10.0344C15.2062 10.3421 15.4557 10.5918 15.7631 10.5918C16.0706 10.5918 16.3201 10.3421 16.3201 10.0344C16.3201 7.66456 14.4682 5.71024 12.103 5.58539ZM12.3401 7.33256C12.1251 7.36462 11.9398 7.52083 11.8822 7.74405C11.8053 8.04223 11.9845 8.34585 12.2825 8.42332C12.8655 8.57381 13.322 9.03172 13.4746 9.6175C13.5398 9.86831 13.7657 10.0344 14.013 10.0344C14.0592 10.0344 14.1071 10.0282 14.1544 10.0159C14.4518 9.93789 14.6299 9.63374 14.5525 9.33556C14.298 8.35907 13.5355 7.59702 12.562 7.34454C12.4872 7.32545 12.4118 7.32188 12.3401 7.33256Z" fill="currentColor"></path>
  </symbol>
  <symbol xmlns="http://www.w3.org/2000/svg" viewBox="0 0 23 23" id="ic_whatsapp">
    <path fill-rule="evenodd" clip-rule="evenodd" d="M19.0314 3.23752C16.9357 1.15136 14.1512 0 11.1853 0C5.07238 0 0.0942692 4.95192 0.0942692 11.0372C0.0906427 12.9825 0.60187 14.881 1.57356 16.5557L0 22.2764L5.88092 20.7389C7.49799 21.6195 9.32535 22.0815 11.1817 22.0851H11.1853C17.2983 22.0851 22.2728 17.1332 22.2764 11.0444C22.2764 8.0956 21.1234 5.32368 19.0314 3.23752ZM11.1853 20.2191H11.1817C9.52839 20.2191 7.90407 19.7752 6.49004 18.9415L6.15285 18.7429L2.66128 19.6525L3.59309 16.267L3.37555 15.9205C2.45099 14.4587 1.96514 12.7696 1.96514 11.0372C1.96514 5.98056 6.10209 1.86599 11.189 1.86599C13.6508 1.86599 15.964 2.82245 17.7044 4.5549C19.4447 6.29096 20.4019 8.59367 20.4019 11.0444C20.4019 16.1046 16.265 20.2191 11.1853 20.2191ZM16.2396 13.3471C15.964 13.2099 14.6008 12.5422 14.347 12.452C14.0932 12.3581 13.9083 12.3148 13.7233 12.5891C13.5384 12.8671 13.0091 13.4878 12.8459 13.6719C12.6864 13.8524 12.5232 13.8776 12.2477 13.7405C11.9685 13.6033 11.0766 13.311 10.0179 12.369C9.19483 11.6399 8.63647 10.734 8.47693 10.4597C8.31378 10.1818 8.4588 10.0338 8.59658 9.89662C8.72348 9.77391 8.87576 9.5754 9.01354 9.41298C9.15132 9.25417 9.19845 9.13867 9.29272 8.9546C9.38336 8.77053 9.33623 8.60811 9.26734 8.47096C9.19845 8.33381 8.64372 6.97311 8.41167 6.42089C8.18688 5.88311 7.95846 5.95891 7.78805 5.94808C7.62851 5.94086 7.4436 5.94086 7.25869 5.94086C7.07378 5.94086 6.77284 6.00944 6.51904 6.28735C6.26524 6.56166 5.55098 7.22937 5.55098 8.58646C5.55098 9.94354 6.54442 11.2573 6.6822 11.4414C6.81998 11.6219 8.63647 14.4082 11.4174 15.6029C12.0773 15.888 12.5921 16.0576 12.9946 16.184C13.6581 16.3933 14.2636 16.3644 14.7422 16.2959C15.2752 16.2165 16.381 15.6281 16.613 14.9821C16.8415 14.3396 16.8415 13.7874 16.7726 13.6719C16.7037 13.5564 16.5188 13.4878 16.2396 13.3471Z" fill="currentColor"></path>
  </symbol>
</svg>