<svg width="178" height="44" viewBox="0 0 178 44" fill="none" xmlns="http://www.w3.org/2000/svg">
<path d="M177.016 0H0.015625V44H177.016V0Z" fill="#EE1732"/>
<path d="M19.0992 13.8467H10.0703L12.0598 5.97754H38.8056L36.851 13.8467H28.0655L22.132 37.1651H13.2284L19.0992 13.8467Z" fill="white"/>
<path d="M42.461 5.97754H68.9843L67.0088 13.8467H49.1249L47.9841 18.1457H63.7464L61.8335 25.0862H46.2242L45.2087 29.3166H63.0995L61.2214 37.1926H34.5312L42.461 5.97754Z" fill="white"/>
<path d="M149.506 5.97754H158.284L152.496 29.3166H165.345L163.355 37.1995H141.688L149.506 5.97754Z" fill="white"/>
<path d="M129.594 37.1651L137.42 5.98442L146.448 5.97754L138.623 37.1307L129.594 37.1651Z" fill="white"/>
<path fill-rule="evenodd" clip-rule="evenodd" d="M79.6028 13.5096L78.5316 17.8844H86.1207C88.284 17.8844 88.9031 16.9489 89.0978 15.8209C89.1443 15.56 89.1367 15.2925 89.0757 15.0346C89.0146 14.7766 88.9014 14.5336 88.7428 14.3202C88.5841 14.1068 88.3834 13.9274 88.1528 13.7928C87.922 13.6582 87.6662 13.5712 87.4005 13.5371L79.6028 13.5096ZM92.1237 5.99129C93.1405 5.98312 94.1463 6.19144 95.0746 6.60211C96.002 7.01279 96.8298 7.61618 97.5009 8.37129C101.299 12.4984 98.5648 20.3675 91.7132 20.8834C91.5394 20.8834 97.5074 21.6607 95.8867 29.0208C95.0386 32.9279 91.289 37.1789 85.8841 37.1789L64.7031 37.1995L72.5077 5.97754L92.1237 5.99129ZM76.7578 24.9831L75.6797 29.3166H83.2687C85.4319 29.3166 86.0511 28.388 86.2459 27.253C86.2933 26.992 86.2864 26.7242 86.2259 26.466C86.1653 26.2077 86.0521 25.9643 85.8933 25.7506C85.7345 25.537 85.5334 25.3576 85.3022 25.2232C85.071 25.0889 84.8146 25.0025 84.5486 24.9694H76.7578" fill="white"/>
<path fill-rule="evenodd" clip-rule="evenodd" d="M108.282 21.3237C106.828 26.3107 107.836 29.6193 112.803 29.6262C116.594 29.6262 120.099 28.4844 121.845 21.3719C122.952 16.7083 122.27 13.4409 117.45 13.5096C115.363 13.5716 110.299 13.1658 108.282 21.3306M119.661 5.04901C131.431 4.84953 133.093 14.2663 130.673 22.2455C127.348 35.4799 120.899 38.0663 110.764 38.0663C99.4824 38.0663 97.9235 30.2247 99.2178 21.6746C102.508 6.43849 110.695 5.16595 118.11 5.09716H119.661" fill="white"/>
</svg>
